<svg id="Ebene_1" data-name="Ebene 1" xmlns="http://www.w3.org/2000/svg" viewBox="0 0 36.88 41"><defs><style>.cls-1{fill:#36a9e1;}.cls-2{fill:#c4c4c4;}.cls-3{fill:#00487d;}</style></defs><title>download_msexcel</title><path class="cls-1" d="M10.2,38.43c0,.06,0,0,0,0h0Z"/><path class="cls-2" d="M29,.5H10.31a2,2,0,0,0-1.37.54,1.79,1.79,0,0,0-.57,1.31V8.31A1,1,0,0,1,9,8.11a1,1,0,0,1,.7.27V2.25a.49.49,0,0,1,.19-.39.61.61,0,0,1,.45-.15L29,1.69l.25,3.69H35c.08,0,.11.4.11.55l0,32.69a.61.61,0,0,1-.19.44.65.65,0,0,1-.45.19h-14a1,1,0,0,1,.2.56,1,1,0,0,1-.29.68H34.45a2,2,0,0,0,1.37-.54,1.8,1.8,0,0,0,.57-1.31L36.36,6A3.21,3.21,0,0,0,35,3.52l-3.31-2.2A5.65,5.65,0,0,0,29,.5Zm1.46,3.88-.15-2.29a2.83,2.83,0,0,1,.67.36l2.83,1.93Z"/><g id="_18-ecommerce_-_download_digital_item" data-name="18-ecommerce - download digital item"><g id="_18-ecommerce_-_download_digital_item-2" data-name="18-ecommerce - download digital item"><path class="cls-2" d="M8.23,34.34s.11,0,.16.07a1,1,0,0,0,.64.27,1,1,0,0,0,.72-.33h0l5.92-6.14a1.12,1.12,0,0,0,0-1.54,1,1,0,0,0-1.48,0L10,31V11.72a1,1,0,1,0-2,0V31.07l-4.25-4.4a1,1,0,0,0-1.48,0,1.12,1.12,0,0,0,0,1.54Z"/></g></g><path class="cls-3" d="M17,38.81H1a1,1,0,1,0,0,2H17a1,1,0,1,0,0-2Z"/><path class="cls-3" d="M13.45,19.81a.8.8,0,0,1,.16-.54.59.59,0,0,1,.47-.19.63.63,0,0,1,.49.19.77.77,0,0,1,.17.54.75.75,0,0,1-.18.54.7.7,0,0,1-.94,0A.73.73,0,0,1,13.45,19.81Z"/><path class="cls-3" d="M17.93,17.36l-2-2.87h1l1.55,2.26L20,14.49h1l-2,2.87,2.15,3h-1L18.45,18l-1.67,2.38h-1Z"/><path class="cls-3" d="M23.16,20.38h-.89V12h.89Z"/><path class="cls-3" d="M28.85,18.77A1.48,1.48,0,0,1,28.24,20a2.88,2.88,0,0,1-1.72.45,3.72,3.72,0,0,1-1.83-.37v-.83a4.41,4.41,0,0,0,.91.34,3.82,3.82,0,0,0,.94.12,2.13,2.13,0,0,0,1.07-.22.77.77,0,0,0,.08-1.27,4.65,4.65,0,0,0-1.16-.58,6.34,6.34,0,0,1-1.17-.53,1.61,1.61,0,0,1-.52-.52,1.36,1.36,0,0,1-.17-.69,1.32,1.32,0,0,1,.58-1.14,2.73,2.73,0,0,1,1.61-.42,4.7,4.7,0,0,1,1.86.39l-.32.72a4.28,4.28,0,0,0-1.61-.37,1.84,1.84,0,0,0-1,.2.62.62,0,0,0-.32.55.67.67,0,0,0,.12.4,1.2,1.2,0,0,0,.39.32,8.84,8.84,0,0,0,1,.44,3.84,3.84,0,0,1,1.42.77A1.36,1.36,0,0,1,28.85,18.77Z"/></svg>