<svg id="Ebene_1" data-name="Ebene 1" xmlns="http://www.w3.org/2000/svg" viewBox="0 0 36.88 41"><defs><style>.cls-1{fill:#36a9e1;}.cls-2{fill:#c4c4c4;}.cls-3{fill:#00487d;}</style></defs><title>download_audio</title><path class="cls-1" d="M10.2,38.43c0,.06,0,0,0,0h0Z"/><path class="cls-2" d="M29,.5H10.31a2,2,0,0,0-1.37.54,1.79,1.79,0,0,0-.57,1.31V8.31A1,1,0,0,1,9,8.11a1,1,0,0,1,.7.27V2.25a.49.49,0,0,1,.19-.39.61.61,0,0,1,.45-.15L29,1.69l.25,3.69H35c.08,0,.11.4.11.55l0,32.69a.61.61,0,0,1-.19.44.65.65,0,0,1-.45.19h-14a1,1,0,0,1,.2.56,1,1,0,0,1-.29.68H34.45a2,2,0,0,0,1.37-.54,1.8,1.8,0,0,0,.57-1.31L36.36,6A3.21,3.21,0,0,0,35,3.52l-3.31-2.2A5.65,5.65,0,0,0,29,.5Zm1.46,3.88-.15-2.29a2.83,2.83,0,0,1,.67.36l2.83,1.93Z"/><g id="_18-ecommerce_-_download_digital_item" data-name="18-ecommerce - download digital item"><g id="_18-ecommerce_-_download_digital_item-2" data-name="18-ecommerce - download digital item"><path class="cls-2" d="M8.23,34.34s.11,0,.16.07a1,1,0,0,0,.64.27,1,1,0,0,0,.72-.33h0l5.92-6.14a1.12,1.12,0,0,0,0-1.54,1,1,0,0,0-1.48,0L10,31V11.72a1,1,0,1,0-2,0V31.07l-4.25-4.4a1,1,0,0,0-1.48,0,1.12,1.12,0,0,0,0,1.54Z"/></g></g><path class="cls-3" d="M17,38.81H1a1,1,0,1,0,0,2H17a1,1,0,1,0,0-2Z"/><g id="softer"><path class="cls-3" d="M23.28,13.43a.53.53,0,0,0-.56.06L19.07,16.3H16a.53.53,0,0,0-.53.53v4.09a.53.53,0,0,0,.53.53h3l3.66,2.81a.52.52,0,0,0,.32.11.54.54,0,0,0,.23-.05.53.53,0,0,0,.29-.47V13.91A.52.52,0,0,0,23.28,13.43Zm-.76,9.34-3-2.27a.53.53,0,0,0-.32-.11H16.56v-3h2.69a.52.52,0,0,0,.32-.11l3-2.27Z"/><path class="cls-3" d="M28.75,14.07a.53.53,0,0,0-.85.63,6.9,6.9,0,0,1,1.25,4.18,6.89,6.89,0,0,1-1.25,4.17.53.53,0,0,0,.85.63,8,8,0,0,0,1.46-4.81A8,8,0,0,0,28.75,14.07Z"/><path class="cls-3" d="M25.5,15.34a.53.53,0,0,0-.11.74,5.06,5.06,0,0,1,0,5.61.53.53,0,0,0,.11.74.51.51,0,0,0,.31.1.53.53,0,0,0,.43-.21,5.76,5.76,0,0,0,1.05-3.43,5.76,5.76,0,0,0-1.05-3.43A.53.53,0,0,0,25.5,15.34Z"/></g></svg>