<svg id="Ebene_1" data-name="Ebene 1" xmlns="http://www.w3.org/2000/svg" viewBox="0 0 36.88 41"><defs><style>.cls-1{fill:#36a9e1;}.cls-2{fill:#c4c4c4;}.cls-3{fill:#00487d;}</style></defs><title>download_image</title><path class="cls-1" d="M10.2,38.43c0,.06,0,0,0,0h0Z"/><path class="cls-2" d="M29,.5H10.31a2,2,0,0,0-1.37.54,1.79,1.79,0,0,0-.57,1.31V8.31A1,1,0,0,1,9,8.11a1.05,1.05,0,0,1,.7.27V2.25a.49.49,0,0,1,.19-.39.61.61,0,0,1,.45-.15L29,1.69l.25,3.69H35c.08,0,.11.4.11.55l0,32.69a.61.61,0,0,1-.19.44.65.65,0,0,1-.45.19h-14a1,1,0,0,1,.2.56,1,1,0,0,1-.29.68H34.45a2,2,0,0,0,1.37-.54,1.8,1.8,0,0,0,.57-1.31L36.36,6A3.21,3.21,0,0,0,35,3.52l-3.31-2.2A5.65,5.65,0,0,0,29,.5Zm1.46,3.88-.15-2.29a2.82,2.82,0,0,1,.67.36l2.83,1.93Z"/><g id="_18-ecommerce_-_download_digital_item" data-name="18-ecommerce - download digital item"><g id="_18-ecommerce_-_download_digital_item-2" data-name="18-ecommerce - download digital item"><path class="cls-2" d="M8.23,34.34s.11,0,.16.07a1,1,0,0,0,.64.27,1,1,0,0,0,.72-.33h0l5.92-6.14a1.12,1.12,0,0,0,0-1.54,1,1,0,0,0-1.48,0L10,31V11.72a1,1,0,1,0-2,0V31.07l-4.25-4.4a1,1,0,0,0-1.48,0,1.12,1.12,0,0,0,0,1.54Z"/></g></g><path class="cls-3" d="M17,38.81H1a1,1,0,1,0,0,2H17a1,1,0,1,0,0-2Z"/><g id="image"><path class="cls-3" d="M28.6,25.38H17a1.73,1.73,0,0,1-1.72-1.72V12.1A1.73,1.73,0,0,1,17,10.38H28.6a1.73,1.73,0,0,1,1.73,1.72V23.66A1.73,1.73,0,0,1,28.6,25.38ZM17,11a1.12,1.12,0,0,0-1.12,1.12V23.66A1.12,1.12,0,0,0,17,24.77H28.6a1.12,1.12,0,0,0,1.12-1.12V12.1A1.12,1.12,0,0,0,28.6,11Z"/><path class="cls-3" d="M19.09,17a1.45,1.45,0,1,1,1.45-1.45A1.45,1.45,0,0,1,19.09,17Zm0-2.59a1.14,1.14,0,1,0,1.14,1.15A1.15,1.15,0,0,0,19.09,14.37Z"/><path class="cls-3" d="M28.34,21.3H17.42L21,17.18l1.16,1.19,2.17-3.08ZM18.09,21h9.68l-3.41-5.17-2.13,3-1.18-1.22Z"/></g></svg>