<svg id="Ebene_1" data-name="Ebene 1" xmlns="http://www.w3.org/2000/svg" viewBox="0 0 36.88 41"><defs><style>.cls-1{fill:#36a9e1;}.cls-2{fill:#c4c4c4;}.cls-3{fill:#00487d;}</style></defs><title>download_pdf</title><path class="cls-1" d="M10.2,38.43c0,.06,0,0,0,0h0Z"/><path class="cls-2" d="M29,.5H10.31a2,2,0,0,0-1.37.54,1.79,1.79,0,0,0-.57,1.31V8.31A1,1,0,0,1,9,8.11a1,1,0,0,1,.7.27V2.25a.49.49,0,0,1,.19-.39.61.61,0,0,1,.45-.15L29,1.69l.25,3.69H35c.08,0,.11.4.11.55l0,32.69a.61.61,0,0,1-.19.44.65.65,0,0,1-.45.19h-14a1,1,0,0,1,.2.56,1,1,0,0,1-.29.68H34.45a2,2,0,0,0,1.37-.54,1.8,1.8,0,0,0,.57-1.31L36.36,6A3.21,3.21,0,0,0,35,3.52l-3.31-2.2A5.65,5.65,0,0,0,29,.5Zm1.46,3.88-.15-2.29a2.83,2.83,0,0,1,.67.36l2.83,1.93Z"/><g id="_18-ecommerce_-_download_digital_item" data-name="18-ecommerce - download digital item"><g id="_18-ecommerce_-_download_digital_item-2" data-name="18-ecommerce - download digital item"><path class="cls-2" d="M8.23,34.34s.11,0,.16.07a1,1,0,0,0,.64.27,1,1,0,0,0,.72-.33h0l5.92-6.14a1.12,1.12,0,0,0,0-1.54,1,1,0,0,0-1.48,0L10,31V11.72a1,1,0,1,0-2,0V31.07l-4.25-4.4a1,1,0,0,0-1.48,0,1.12,1.12,0,0,0,0,1.54Z"/></g></g><path class="cls-3" d="M17,38.81H1a1,1,0,1,0,0,2H17a1,1,0,1,0,0-2Z"/><path class="cls-3" d="M12.33,19.81a.8.8,0,0,1,.16-.54.59.59,0,0,1,.47-.19.63.63,0,0,1,.49.19.77.77,0,0,1,.17.54.75.75,0,0,1-.18.54.7.7,0,0,1-.94,0A.73.73,0,0,1,12.33,19.81Z"/><path class="cls-3" d="M18.13,20.49a2.54,2.54,0,0,1-1-.21,2,2,0,0,1-.8-.65h-.06a7.9,7.9,0,0,1,.06,1V23h-.89V14.49h.72l.12.81h0a2.08,2.08,0,0,1,.8-.7,2.43,2.43,0,0,1,1-.21,2.18,2.18,0,0,1,1.81.8,3.52,3.52,0,0,1,.64,2.24,3.5,3.5,0,0,1-.65,2.25A2.18,2.18,0,0,1,18.13,20.49ZM18,15.14a1.58,1.58,0,0,0-1.31.5,2.58,2.58,0,0,0-.41,1.59v.2a3,3,0,0,0,.41,1.78,1.58,1.58,0,0,0,1.33.54,1.38,1.38,0,0,0,1.2-.62,2.93,2.93,0,0,0,.43-1.7,2.82,2.82,0,0,0-.43-1.69A1.42,1.42,0,0,0,18,15.14Z"/><path class="cls-3" d="M26.14,19.59h0a2.1,2.1,0,0,1-1.85.9,2.19,2.19,0,0,1-1.8-.79,3.48,3.48,0,0,1-.64-2.25,3.53,3.53,0,0,1,.64-2.26,2.17,2.17,0,0,1,1.79-.81,2.14,2.14,0,0,1,1.84.87h.07l0-.42,0-.41V12H27v8.36h-.72Zm-1.78.15a1.63,1.63,0,0,0,1.32-.5,2.51,2.51,0,0,0,.41-1.6v-.19a3,3,0,0,0-.42-1.79,1.58,1.58,0,0,0-1.33-.54,1.37,1.37,0,0,0-1.2.61,3,3,0,0,0-.42,1.72,2.91,2.91,0,0,0,.41,1.7A1.4,1.4,0,0,0,24.35,19.74Z"/><path class="cls-3" d="M31.52,15.18H30v5.19h-.89V15.18H28.08v-.4l1.05-.32v-.33Q29.13,12,31,12a3.9,3.9,0,0,1,1.1.19l-.23.71A2.94,2.94,0,0,0,31,12.7a.86.86,0,0,0-.75.34A1.87,1.87,0,0,0,30,14.11v.38h1.5Z"/></svg>