<svg id="Ebene_1" data-name="Ebene 1" xmlns="http://www.w3.org/2000/svg" viewBox="0 0 36.88 41"><defs><style>.cls-1{fill:#36a9e1;}.cls-2{fill:#c4c4c4;}.cls-3{fill:#00487d;}</style></defs><title>download_html</title><path class="cls-1" d="M10.2,38.43c0,.06,0,0,0,0h0Z"/><path class="cls-2" d="M29,.5H10.31a2,2,0,0,0-1.37.54,1.79,1.79,0,0,0-.57,1.31V8.31A1,1,0,0,1,9,8.11a1,1,0,0,1,.7.27V2.25a.49.49,0,0,1,.19-.39.61.61,0,0,1,.45-.15L29,1.69l.25,3.69H35c.08,0,.11.4.11.55l0,32.69a.61.61,0,0,1-.19.44.65.65,0,0,1-.45.19h-14a1,1,0,0,1,.2.56,1,1,0,0,1-.29.68H34.45a2,2,0,0,0,1.37-.54,1.8,1.8,0,0,0,.57-1.31L36.36,6A3.21,3.21,0,0,0,35,3.52l-3.31-2.2A5.65,5.65,0,0,0,29,.5Zm1.46,3.88-.15-2.29a2.83,2.83,0,0,1,.67.36l2.83,1.93Z"/><g id="_18-ecommerce_-_download_digital_item" data-name="18-ecommerce - download digital item"><g id="_18-ecommerce_-_download_digital_item-2" data-name="18-ecommerce - download digital item"><path class="cls-2" d="M8.23,34.34s.11,0,.16.07a1,1,0,0,0,.64.27,1,1,0,0,0,.72-.33h0l5.92-6.14a1.12,1.12,0,0,0,0-1.54,1,1,0,0,0-1.48,0L10,31V11.72a1,1,0,1,0-2,0V31.07l-4.25-4.4a1,1,0,0,0-1.48,0,1.12,1.12,0,0,0,0,1.54Z"/></g></g><path class="cls-3" d="M17,38.81H1a1,1,0,1,0,0,2H17a1,1,0,1,0,0-2Z"/><path class="cls-3" d="M11.63,19.81a.85.85,0,0,1,.15-.54.52.52,0,0,1,.43-.19.56.56,0,0,1,.45.19.81.81,0,0,1,.16.54.8.8,0,0,1-.16.54.61.61,0,0,1-.86,0A.77.77,0,0,1,11.63,19.81Z"/><path class="cls-3" d="M17.84,20.38V16.57a1.63,1.63,0,0,0-.3-1.07,1.17,1.17,0,0,0-.94-.35,1.48,1.48,0,0,0-1.25.5A2.73,2.73,0,0,0,15,17.3v3.08h-.82V12H15v2.53a6,6,0,0,1,0,.76h0a1.72,1.72,0,0,1,.69-.67,2.09,2.09,0,0,1,1-.24,2,2,0,0,1,1.49.51,2.28,2.28,0,0,1,.5,1.63v3.84Z"/><path class="cls-3" d="M21.79,19.75a2.45,2.45,0,0,0,.42,0l.32-.07v.68a1.39,1.39,0,0,1-.39.12,2.75,2.75,0,0,1-.47,0q-1.57,0-1.57-1.8v-3.5h-.78v-.43l.78-.37.35-1.26h.47v1.36H22.5v.69H20.92v3.46a1.26,1.26,0,0,0,.23.82A.78.78,0,0,0,21.79,19.75Z"/><path class="cls-3" d="M30.22,20.38V16.55a1.69,1.69,0,0,0-.28-1.05,1,1,0,0,0-.86-.35,1.33,1.33,0,0,0-1.13.48,2.41,2.41,0,0,0-.37,1.47v3.29h-.82V16.55a1.69,1.69,0,0,0-.28-1.05,1,1,0,0,0-.86-.35,1.29,1.29,0,0,0-1.13.5,2.91,2.91,0,0,0-.36,1.65v3.09h-.82V14.49H24l.13.81h0a1.67,1.67,0,0,1,.65-.67,1.86,1.86,0,0,1,.95-.24,1.59,1.59,0,0,1,1.66,1h0a1.8,1.8,0,0,1,.7-.73,2,2,0,0,1,1-.27,1.75,1.75,0,0,1,1.38.51A2.43,2.43,0,0,1,31,16.54v3.84Z"/><path class="cls-3" d="M33.24,20.38h-.82V12h.82Z"/></svg>