<svg id="Ebene_1" data-name="Ebene 1" xmlns="http://www.w3.org/2000/svg" viewBox="0 0 36.88 41"><defs><style>.cls-1{fill:#36a9e1;}.cls-2{fill:#c4c4c4;}.cls-3{fill:#00487d;}</style></defs><title>download_docx</title><path class="cls-1" d="M10.2,38.43c0,.06,0,0,0,0h0Z"/><path class="cls-2" d="M29,.5H10.31a2,2,0,0,0-1.37.54,1.79,1.79,0,0,0-.57,1.31V8.31A1,1,0,0,1,9,8.11a1,1,0,0,1,.7.27V2.25a.49.49,0,0,1,.19-.39.61.61,0,0,1,.45-.15L29,1.69l.25,3.69H35c.08,0,.11.4.11.55l0,32.69a.61.61,0,0,1-.19.44.65.65,0,0,1-.45.19h-14a1,1,0,0,1,.2.56,1,1,0,0,1-.29.68H34.45a2,2,0,0,0,1.37-.54,1.8,1.8,0,0,0,.57-1.31L36.36,6A3.21,3.21,0,0,0,35,3.52l-3.31-2.2A5.65,5.65,0,0,0,29,.5Zm1.46,3.88-.15-2.29a2.83,2.83,0,0,1,.67.36l2.83,1.93Z"/><g id="_18-ecommerce_-_download_digital_item" data-name="18-ecommerce - download digital item"><g id="_18-ecommerce_-_download_digital_item-2" data-name="18-ecommerce - download digital item"><path class="cls-2" d="M8.23,34.34s.11,0,.16.07a1,1,0,0,0,.64.27,1,1,0,0,0,.72-.33h0l5.92-6.14a1.12,1.12,0,0,0,0-1.54,1,1,0,0,0-1.48,0L10,31V11.72a1,1,0,1,0-2,0V31.07l-4.25-4.4a1,1,0,0,0-1.48,0,1.12,1.12,0,0,0,0,1.54Z"/></g></g><path class="cls-3" d="M17,38.81H1a1,1,0,1,0,0,2H17a1,1,0,1,0,0-2Z"/><path class="cls-3" d="M10.51,19.81a.85.85,0,0,1,.15-.54.52.52,0,0,1,.43-.19.56.56,0,0,1,.45.19.81.81,0,0,1,.16.54.8.8,0,0,1-.16.54.61.61,0,0,1-.86,0A.77.77,0,0,1,10.51,19.81Z"/><path class="cls-3" d="M16.7,19.59h0a1.88,1.88,0,0,1-1.7.9,2,2,0,0,1-1.65-.79,3.69,3.69,0,0,1-.59-2.25,3.75,3.75,0,0,1,.59-2.26A1.93,1.93,0,0,1,15,14.38a1.92,1.92,0,0,1,1.69.87h.06l0-.42,0-.41V12h.82v8.36h-.67Zm-1.64.15a1.43,1.43,0,0,0,1.22-.5,2.68,2.68,0,0,0,.38-1.6v-.19a3.16,3.16,0,0,0-.38-1.79,1.4,1.4,0,0,0-1.22-.54,1.23,1.23,0,0,0-1.1.61,3.24,3.24,0,0,0-.38,1.72,3.1,3.1,0,0,0,.38,1.7A1.26,1.26,0,0,0,15.06,19.74Z"/><path class="cls-3" d="M23.59,17.43a3.43,3.43,0,0,1-.67,2.25,2.26,2.26,0,0,1-1.84.81,2.29,2.29,0,0,1-1.29-.37,2.39,2.39,0,0,1-.87-1.06,4,4,0,0,1-.31-1.62,3.43,3.43,0,0,1,.66-2.24,2.25,2.25,0,0,1,1.84-.8,2.21,2.21,0,0,1,1.81.82A3.42,3.42,0,0,1,23.59,17.43Zm-4.13,0a3,3,0,0,0,.42,1.72,1.56,1.56,0,0,0,2.44,0,3,3,0,0,0,.42-1.72,2.91,2.91,0,0,0-.42-1.71,1.42,1.42,0,0,0-1.23-.58,1.4,1.4,0,0,0-1.22.57A3,3,0,0,0,19.46,17.43Z"/><path class="cls-3" d="M26.89,20.49a2.22,2.22,0,0,1-1.82-.79,3.43,3.43,0,0,1-.64-2.23,3.53,3.53,0,0,1,.65-2.28,2.27,2.27,0,0,1,1.87-.81,3.39,3.39,0,0,1,.78.09,2.38,2.38,0,0,1,.61.21l-.25.76a3.58,3.58,0,0,0-.59-.2,2.45,2.45,0,0,0-.57-.08q-1.65,0-1.65,2.29a2.9,2.9,0,0,0,.4,1.66,1.36,1.36,0,0,0,1.19.58,3.4,3.4,0,0,0,1.39-.32v.79A2.75,2.75,0,0,1,26.89,20.49Z"/><path class="cls-3" d="M30.54,17.36l-1.88-2.87h.93L31,16.75l1.42-2.26h.92l-1.88,2.87,2,3h-.93L31,18l-1.53,2.38h-.93Z"/></svg>