<svg id="Ebene_1" data-name="Ebene 1" xmlns="http://www.w3.org/2000/svg" viewBox="0 0 36.88 41"><defs><style>.cls-1{fill:#36a9e1;}.cls-2{fill:#c4c4c4;}.cls-3{fill:#00487d;}</style></defs><title>download_pptx</title><path class="cls-1" d="M10.2,38.43c0,.06,0,0,0,0h0Z"/><path class="cls-2" d="M29,.5H10.31a2,2,0,0,0-1.37.54,1.79,1.79,0,0,0-.57,1.31V8.31A1,1,0,0,1,9,8.11a1,1,0,0,1,.7.27V2.25a.49.49,0,0,1,.19-.39.61.61,0,0,1,.45-.15L29,1.69l.25,3.69H35c.08,0,.11.4.11.55l0,32.69a.61.61,0,0,1-.19.44.65.65,0,0,1-.45.19h-14a1,1,0,0,1,.2.56,1,1,0,0,1-.29.68H34.45a2,2,0,0,0,1.37-.54,1.8,1.8,0,0,0,.57-1.31L36.36,6A3.21,3.21,0,0,0,35,3.52l-3.31-2.2A5.65,5.65,0,0,0,29,.5Zm1.46,3.88-.15-2.29a2.83,2.83,0,0,1,.67.36l2.83,1.93Z"/><g id="_18-ecommerce_-_download_digital_item" data-name="18-ecommerce - download digital item"><g id="_18-ecommerce_-_download_digital_item-2" data-name="18-ecommerce - download digital item"><path class="cls-2" d="M8.23,34.34s.11,0,.16.07a1,1,0,0,0,.64.27,1,1,0,0,0,.72-.33h0l5.92-6.14a1.12,1.12,0,0,0,0-1.54,1,1,0,0,0-1.48,0L10,31V11.72a1,1,0,1,0-2,0V31.07l-4.25-4.4a1,1,0,0,0-1.48,0,1.12,1.12,0,0,0,0,1.54Z"/></g></g><path class="cls-3" d="M17,38.81H1a1,1,0,1,0,0,2H17a1,1,0,1,0,0-2Z"/><path class="cls-3" d="M12.11,19.81a.85.85,0,0,1,.15-.54.52.52,0,0,1,.43-.19.56.56,0,0,1,.45.19.81.81,0,0,1,.16.54.8.8,0,0,1-.16.54.61.61,0,0,1-.86,0A.77.77,0,0,1,12.11,19.81Z"/><path class="cls-3" d="M17.14,20.49a2.18,2.18,0,0,1-1-.21,1.85,1.85,0,0,1-.73-.65h-.06a8.69,8.69,0,0,1,.06,1V23h-.82V14.49h.67l.11.81h0a2,2,0,0,1,.74-.7,2.08,2.08,0,0,1,1-.21,1.94,1.94,0,0,1,1.66.8,3.74,3.74,0,0,1,.58,2.24,3.73,3.73,0,0,1-.59,2.25A1.94,1.94,0,0,1,17.14,20.49ZM17,15.14a1.4,1.4,0,0,0-1.2.5,2.73,2.73,0,0,0-.38,1.59v.2a3.15,3.15,0,0,0,.38,1.78,1.39,1.39,0,0,0,1.22.54,1.24,1.24,0,0,0,1.1-.62,3.13,3.13,0,0,0,.4-1.7,3,3,0,0,0-.4-1.69A1.27,1.27,0,0,0,17,15.14Z"/><path class="cls-3" d="M23,20.49a2.18,2.18,0,0,1-1-.21,1.85,1.85,0,0,1-.73-.65h-.06a8.69,8.69,0,0,1,.06,1V23h-.82V14.49h.67l.11.81h0a2,2,0,0,1,.74-.7,2.08,2.08,0,0,1,1-.21,1.94,1.94,0,0,1,1.66.8,3.74,3.74,0,0,1,.58,2.24,3.73,3.73,0,0,1-.59,2.25A1.94,1.94,0,0,1,23,20.49Zm-.12-5.34a1.4,1.4,0,0,0-1.2.5,2.73,2.73,0,0,0-.38,1.59v.2a3.15,3.15,0,0,0,.38,1.78,1.39,1.39,0,0,0,1.22.54,1.24,1.24,0,0,0,1.1-.62,3.13,3.13,0,0,0,.4-1.7,3,3,0,0,0-.4-1.69A1.27,1.27,0,0,0,22.92,15.14Z"/><path class="cls-3" d="M28.17,19.75a2.45,2.45,0,0,0,.42,0l.32-.07v.68a1.39,1.39,0,0,1-.39.12,2.75,2.75,0,0,1-.47,0q-1.57,0-1.57-1.8v-3.5H25.7v-.43l.78-.37.35-1.26h.47v1.36h1.57v.69H27.3v3.46a1.26,1.26,0,0,0,.23.82A.78.78,0,0,0,28.17,19.75Z"/><path class="cls-3" d="M31,17.36l-1.88-2.87H30l1.43,2.26,1.42-2.26h.92l-1.88,2.87,2,3H33L31.47,18l-1.53,2.38H29Z"/></svg>