<svg id="Ebene_1" data-name="Ebene 1" xmlns="http://www.w3.org/2000/svg" viewBox="0 0 36.88 41"><defs><style>.cls-1{fill:#36a9e1;}.cls-2{fill:#c4c4c4;}.cls-3{fill:#00487d;}</style></defs><title>download_rtf</title><path class="cls-1" d="M10.2,38.43c0,.06,0,0,0,0h0Z"/><path class="cls-2" d="M29,.5H10.31a2,2,0,0,0-1.37.54,1.79,1.79,0,0,0-.57,1.31V8.31A1,1,0,0,1,9,8.11a1.05,1.05,0,0,1,.7.27V2.25a.49.49,0,0,1,.19-.39.61.61,0,0,1,.45-.15L29,1.69l.25,3.69H35c.08,0,.11.4.11.55l0,32.69a.61.61,0,0,1-.19.44.65.65,0,0,1-.45.19h-14a1,1,0,0,1,.2.56,1,1,0,0,1-.29.68H34.45a2,2,0,0,0,1.37-.54,1.8,1.8,0,0,0,.57-1.31L36.36,6A3.21,3.21,0,0,0,35,3.52l-3.31-2.2A5.65,5.65,0,0,0,29,.5Zm1.46,3.88-.15-2.29a2.82,2.82,0,0,1,.67.36l2.83,1.93Z"/><g id="_18-ecommerce_-_download_digital_item" data-name="18-ecommerce - download digital item"><g id="_18-ecommerce_-_download_digital_item-2" data-name="18-ecommerce - download digital item"><path class="cls-2" d="M8.23,34.34s.11,0,.16.07a1,1,0,0,0,.64.27,1,1,0,0,0,.72-.33h0l5.92-6.14a1.12,1.12,0,0,0,0-1.54,1,1,0,0,0-1.48,0L10,31V11.72a1,1,0,1,0-2,0V31.07l-4.25-4.4a1,1,0,0,0-1.48,0,1.12,1.12,0,0,0,0,1.54Z"/></g></g><path class="cls-3" d="M17,38.81H1a1,1,0,1,0,0,2H17a1,1,0,1,0,0-2Z"/><path class="cls-3" d="M14.42,19.81a.8.8,0,0,1,.16-.54.59.59,0,0,1,.47-.19.63.63,0,0,1,.49.19.77.77,0,0,1,.17.54.75.75,0,0,1-.18.54.7.7,0,0,1-.94,0A.73.73,0,0,1,14.42,19.81Z"/><path class="cls-3" d="M20.16,14.38a3.48,3.48,0,0,1,.7.06l-.12.83a3,3,0,0,0-.64-.08,1.57,1.57,0,0,0-1.22.58,2.11,2.11,0,0,0-.51,1.45v3.16h-.89V14.49h.74l.1,1.09h0a2.6,2.6,0,0,1,.79-.89A1.78,1.78,0,0,1,20.16,14.38Z"/><path class="cls-3" d="M23.87,19.75a2.89,2.89,0,0,0,.46,0l.35-.07v.68a1.62,1.62,0,0,1-.43.12,3.24,3.24,0,0,1-.51,0q-1.71,0-1.71-1.8v-3.5h-.84v-.43l.84-.37.38-1.26h.52v1.36h1.71v.69H22.92v3.46a1.19,1.19,0,0,0,.25.82A.88.88,0,0,0,23.87,19.75Z"/><path class="cls-3" d="M28.5,15.18H27v5.19h-.89V15.18H25.06v-.4l1.05-.32v-.33Q26.11,12,28,12a3.9,3.9,0,0,1,1.1.19l-.23.71A2.94,2.94,0,0,0,28,12.7a.86.86,0,0,0-.75.34A1.87,1.87,0,0,0,27,14.11v.38h1.5Z"/></svg>